# Blender 5.1.0
# www.blender.org
o Kubus
v -0.016348 0.000000 1.932594
v -0.016348 2.129834 1.932594
v -0.016348 0.000000 0.033753
v -0.016348 2.129834 0.033753
v 3.469147 0.000000 1.932594
v 3.469147 2.129834 1.932594
v 3.469147 0.000000 0.033753
v 3.469147 2.129834 0.033753
vn -1.0000 -0.0000 -0.0000
vn -0.0000 -0.0000 -1.0000
vn 1.0000 -0.0000 -0.0000
vn -0.0000 -0.0000 1.0000
vn -0.0000 -1.0000 -0.0000
vn -0.0000 1.0000 -0.0000
vt 0.625000 0.000000
vt 0.375000 0.250000
vt 0.375000 0.000000
vt 0.625000 0.250000
vt 0.375000 0.500000
vt 0.625000 0.500000
vt 0.375000 0.750000
vt 0.625000 0.750000
vt 0.375000 1.000000
vt 0.125000 0.750000
vt 0.125000 0.500000
vt 0.875000 0.500000
vt 0.625000 1.000000
vt 0.875000 0.750000
s 0
f 2/1/1 3/2/1 1/3/1
f 4/4/2 7/5/2 3/2/2
f 8/6/3 5/7/3 7/5/3
f 6/8/4 1/9/4 5/7/4
f 7/5/5 1/10/5 3/11/5
f 4/12/6 6/8/6 8/6/6
f 2/1/1 4/4/1 3/2/1
f 4/4/2 8/6/2 7/5/2
f 8/6/3 6/8/3 5/7/3
f 6/8/4 2/13/4 1/9/4
f 7/5/5 5/7/5 1/10/5
f 4/12/6 2/14/6 6/8/6
o Kubus.002
v 3.469148 0.504939 0.067564
v 3.469148 0.504939 1.732115
v 3.686187 0.721978 1.949154
v 5.996543 0.504939 1.732115
v 5.779503 0.721978 1.949154
v 3.469148 1.217711 1.732115
v 3.686187 1.217711 1.949154
v 3.686187 1.434751 1.732115
v 5.996543 1.434751 1.732115
v 5.779503 1.217711 1.949154
v 3.469148 1.217711 0.067564
v 5.736738 0.504939 0.067564
v 5.996543 0.504939 0.327369
v 5.736738 1.174946 0.067564
v 5.996543 1.434751 0.327369
v 3.686187 1.434751 0.327369
v 3.469148 1.217711 0.067564
vn -0.5774 0.5774 0.5774
vn -0.7071 -0.0000 0.7071
vn -0.0000 -0.7071 0.7071
vn 0.7071 -0.0000 0.7071
vn -0.0000 0.7071 0.7071
vn -1.0000 -0.0000 -0.0000
vn -0.0000 -0.0000 1.0000
vn 0.7071 -0.0000 -0.7071
vn -0.0000 0.7071 -0.7071
vn -0.0000 -0.0000 -1.0000
vn -0.0000 -1.0000 -0.0000
vn 1.0000 -0.0000 -0.0000
vn -0.0000 1.0000 -0.0000
vn -0.7071 0.7071 -0.0000
vn 0.0144 0.7614 -0.6481
vt 0.375000 0.191644
vt 0.396469 0.191644
vt 0.396469 0.269225
vt 0.396469 0.058356
vt 0.625000 0.000000
vt 0.375000 0.000000
vt 0.603531 0.191644
vt 0.603531 0.058356
vt 0.625000 0.269225
vt 0.375000 0.558356
vt 0.153837 0.750000
vt 0.153837 0.558356
vt 0.648013 0.761506
vt 0.598818 0.569854
vt 0.642260 0.481990
vt 0.377806 0.475987
vt 0.599301 0.750000
vt 0.375000 0.750000
vt 0.625000 0.971163
vt 0.375000 0.971163
vt 0.846163 0.500000
vt 0.153837 0.500000
vt 0.846163 0.750000
s 0
f 14/15/7 15/16/7 16/17/7
f 14/15/8 11/18/8 15/16/8
f 12/19/9 11/18/9 10/20/9
f 12/19/10 18/21/10 13/22/10
f 16/17/11 18/21/11 17/23/11
f 19/24/12 10/25/12 14/26/12
f 13/22/13 15/16/13 11/18/13
f 21/27/14 22/28/14 23/29/14
f 22/28/15 24/30/15 23/29/15
f 25/24/16 20/31/16 9/32/16
f 20/31/17 12/33/17 10/34/17
f 17/35/18 21/27/18 23/29/18
f 17/23/19 24/30/19 16/17/19
f 19/24/20 16/36/20 24/30/20
f 14/15/8 10/20/8 11/18/8
f 12/19/9 13/22/9 11/18/9
f 12/19/10 17/23/10 18/21/10
f 16/17/11 15/16/11 18/21/11
f 19/24/12 9/32/12 10/25/12
f 13/22/13 18/21/13 15/16/13
f 21/27/14 20/31/14 22/28/14
f 22/28/21 25/24/21 24/30/21
f 25/24/16 22/28/16 20/31/16
f 9/32/18 19/24/18 25/24/18
f 10/34/17 9/32/17 20/31/17
f 20/31/17 21/27/17 12/33/17
f 17/35/18 12/37/18 21/27/18
f 17/23/19 23/29/19 24/30/19
f 19/24/20 14/26/20 16/36/20
f 24/30/18 25/24/18 19/24/18
